<?xml version="1.0" standalone="no"?>
<!DOCTYPE svg PUBLIC "-//W3C//DTD SVG 20010904//EN"
 "http://www.w3.org/TR/2001/REC-SVG-20010904/DTD/svg10.dtd">
<svg version="1.0" xmlns="http://www.w3.org/2000/svg"
 width="1000.000000pt" height="1000.000000pt" viewBox="0 0 1000.000000 1000.000000"
 preserveAspectRatio="xMidYMid meet">
<metadata>
Created by potrace 1.14, written by Peter Selinger 2001-2017
</metadata>
<g transform="translate(0.000000,1000.000000) scale(0.100000,-0.100000)"
fill="#000000" stroke="none">
<path d="M1440 9993 c-86 -9 -259 -46 -343 -74 -128 -42 -314 -137 -427 -217
-121 -86 -286 -251 -372 -372 -126 -178 -222 -399 -270 -626 l-23 -109 -3
-3535 c-2 -2483 0 -3563 8 -3630 23 -206 69 -359 161 -545 78 -158 171 -286
299 -415 259 -259 578 -413 950 -459 58 -8 1195 -11 3587 -11 3847 0 3599 -4
3825 60 271 76 496 208 698 410 202 202 334 427 410 698 64 226 60 -22 60
3832 0 3095 -2 3522 -15 3619 -89 636 -548 1157 -1171 1327 -209 57 -7 54
-3824 52 -1933 -1 -3531 -3 -3550 -5z"/>
</g>
</svg>
